<svg xmlns="http://www.w3.org/2000/svg" version="1.1" width="72" height="72">
<path d="M0 0 C23.76 0 47.52 0 72 0 C72 23.76 72 47.52 72 72 C48.24 72 24.48 72 0 72 C0 48.24 0 24.48 0 0 Z " fill="#2E2942" transform="translate(0,0)"/>
<path d="M0 0 C7.3973076 -0.04629419 14.79458407 -0.08185426 22.19200706 -0.10362434 C25.62675459 -0.1140717 29.06140317 -0.12824805 32.49609375 -0.15087891 C36.44269638 -0.17672063 40.38925863 -0.18646493 44.3359375 -0.1953125 C45.57242035 -0.20563507 46.8089032 -0.21595764 48.08285522 -0.22659302 C49.22388702 -0.22674408 50.36491882 -0.22689514 51.54052734 -0.22705078 C52.548685 -0.231492 53.55684265 -0.23593323 54.59555054 -0.24050903 C57 0 57 0 59 2 C59.24723816 4.4356842 59.24723816 4.4356842 59.24291992 7.53540039 C59.24753487 9.27213768 59.24753487 9.27213768 59.25224304 11.04396057 C59.24505753 12.29918015 59.23787201 13.55439972 59.23046875 14.84765625 C59.23001053 16.12982529 59.22955231 17.41199432 59.2290802 18.73301697 C59.22751538 21.44747324 59.21922513 24.16179761 59.20581055 26.8762207 C59.1888037 30.3624199 59.18499668 33.8484743 59.18575573 37.33471012 C59.1854191 40.65154504 59.17658537 43.96833206 59.16796875 47.28515625 C59.16685593 48.54240005 59.1657431 49.79964386 59.16459656 51.09498596 C59.15821671 52.24965866 59.15183685 53.40433136 59.14526367 54.59399414 C59.13954597 56.12716026 59.13954597 56.12716026 59.13371277 57.69129944 C59 60 59 60 58 61 C56.2003634 61.10422936 54.396634 61.13854102 52.59399414 61.14526367 C51.43932144 61.15164352 50.28464874 61.15802338 49.09498596 61.16459656 C47.83774216 61.16570938 46.58049835 61.1668222 45.28515625 61.16796875 C44.00394394 61.17129715 42.72273163 61.17462555 41.4026947 61.17805481 C38.6865047 61.18405192 35.97034655 61.18589413 33.25415039 61.18530273 C29.76909408 61.1852011 26.28424145 61.19885216 22.79923344 61.21607494 C19.48203767 61.22985066 16.1648803 61.22928324 12.84765625 61.23046875 C11.59243668 61.23765427 10.3372171 61.24483978 9.04396057 61.25224304 C7.88613571 61.24916641 6.72831085 61.24608978 5.53540039 61.24291992 C4.00104088 61.24505745 4.00104088 61.24505745 2.4356842 61.24723816 C0 61 0 61 -2 59 C-2.22705078 56.20263672 -2.22705078 56.20263672 -2.1953125 52.6796875 C-2.18886719 51.42285156 -2.18242188 50.16601562 -2.17578125 48.87109375 C-2.15902344 47.55238281 -2.14226563 46.23367187 -2.125 44.875 C-2.11496983 43.53516279 -2.10584404 42.19531848 -2.09765625 40.85546875 C-2.07402075 37.57013427 -2.04107234 34.28515535 -2 31 C-1.34 31 -0.68 31 0 31 C0.28875 32.134375 0.5775 33.26875 0.875 34.4375 C1.24625 35.613125 1.6175 36.78875 2 38 C2.66 38.33 3.32 38.66 4 39 C4 36.36 4 33.72 4 31 C4.33 31 4.66 31 5 31 C4.99476318 31.84296631 4.98952637 32.68593262 4.98413086 33.55444336 C4.96712174 36.67227936 4.95456594 39.79009177 4.94506836 42.90795898 C4.94002943 44.25920386 4.93319823 45.61044326 4.92456055 46.96166992 C4.91247581 48.90020434 4.90730172 50.838778 4.90234375 52.77734375 C4.89710693 53.94515381 4.89187012 55.11296387 4.88647461 56.31616211 C4.69338505 58.91891551 4.69338505 58.91891551 6 60 C6 50.43 6 40.86 6 31 C6.33 31 6.66 31 7 31 C7 35.95 7 40.9 7 46 C12.94 45.67 18.88 45.34 25 45 C25.33 41.37 25.66 37.74 26 34 C26.969375 34.020625 27.93875 34.04125 28.9375 34.0625 C31.87465895 34.35618499 31.87465895 34.35618499 33 33 C35.86469325 32.92669669 38.69893674 32.90782169 41.5625 32.9375 C45.7390625 32.9684375 45.7390625 32.9684375 50 33 C50 24.75 50 16.5 50 8 C49.34 8.99 48.68 9.98 48 11 C45.69 10.67 43.38 10.34 41 10 C41 10.66 41 11.32 41 12 C39.02 12.33 37.04 12.66 35 13 C36.32 14.32 37.64 15.64 39 17 C39.556875 16.319375 40.11375 15.63875 40.6875 14.9375 C41.450625 14.298125 42.21375 13.65875 43 13 C45.75 13.25 45.75 13.25 48 14 C47 17 47 17 45 18 C45.825 18.763125 46.65 19.52625 47.5 20.3125 C50 23 50 23 50 26 C48.68 25.67 47.36 25.34 46 25 C46 24.34 46 23.68 46 23 C45.21625 23.495 44.4325 23.99 43.625 24.5 C41 26 41 26 39 26 C38.38125 27.2065625 38.38125 27.2065625 37.75 28.4375 C36 31 36 31 33 32 C30 32 30 32 28.125 30.6875 C27 29 27 29 27 27 C29.31 27 31.62 27 34 27 C34 26.34 34 25.68 34 25 C32.68 24.67 31.36 24.34 30 24 C30 24.66 30 25.32 30 26 C29.01 26 28.02 26 27 26 C26.65297066 22.2726478 26.48135376 18.71607356 27 15 C29.6875 12.3125 29.6875 12.3125 33 11 C34.65 11 36.3 11 38 11 C38 7.7 38 4.4 38 1 C32.76709303 1.11808403 27.53438249 1.24232036 22.30175781 1.37231445 C20.52087397 1.4156833 18.73994802 1.45735694 16.95898438 1.49731445 C14.40221452 1.5549699 11.84565702 1.6186777 9.2890625 1.68359375 C8.49005524 1.70030624 7.69104797 1.71701874 6.86782837 1.73423767 C2.80193632 1.75392991 2.80193632 1.75392991 -1 3 C-0.67 2.01 -0.34 1.02 0 0 Z " fill="#7B788E" transform="translate(7,6)"/>
<path d="M0 0 C23.76 0 47.52 0 72 0 C72 23.76 72 47.52 72 72 C48.24 72 24.48 72 0 72 C0 48.24 0 24.48 0 0 Z M5 8 C4.69321 10.49354478 4.69321 10.49354478 4.74121094 13.42773438 C4.73490662 14.56231079 4.72860229 15.69688721 4.72210693 16.86584473 C4.7261554 18.09605347 4.73020386 19.32626221 4.734375 20.59375 C4.73246155 21.85135132 4.7305481 23.10895264 4.72857666 24.40466309 C4.72721351 27.06792875 4.72991994 29.7308293 4.73925781 32.39404297 C4.75065248 35.81071394 4.74409252 39.22707072 4.73211288 42.64373016 C4.72315546 45.89791479 4.72942372 49.15206127 4.734375 52.40625 C4.73032654 53.63645874 4.72627808 54.86666748 4.72210693 56.13415527 C4.72841125 57.26873169 4.73471558 58.40330811 4.74121094 59.57226562 C4.74280212 60.57439087 4.74439331 61.57651611 4.74603271 62.60900879 C4.76642561 65.1854014 4.76642561 65.1854014 7 67 C9.54162997 67.29997886 9.54162997 67.29997886 12.53540039 67.24291992 C13.69322525 67.24599655 14.85105011 67.24907318 16.04396057 67.25224304 C17.92678993 67.24146477 17.92678993 67.24146477 19.84765625 67.23046875 C21.12982529 67.23001053 22.41199432 67.22955231 23.73301697 67.2290802 C26.44747324 67.22751538 29.16179761 67.21922513 31.8762207 67.20581055 C35.3624199 67.1888037 38.8484743 67.18499668 42.33471012 67.18575573 C45.65154504 67.1854191 48.96833206 67.17658537 52.28515625 67.16796875 C53.54240005 67.16685593 54.79964386 67.1657431 56.09498596 67.16459656 C57.82699501 67.15502678 57.82699501 67.15502678 59.59399414 67.14526367 C60.61610489 67.14145187 61.63821564 67.13764008 62.69129944 67.13371277 C64.96276901 67.25891062 64.96276901 67.25891062 66 66 C66.10422936 64.2003634 66.13854102 62.396634 66.14526367 60.59399414 C66.15164352 59.43932144 66.15802338 58.28464874 66.16459656 57.09498596 C66.16570938 55.83774216 66.1668222 54.58049835 66.16796875 53.28515625 C66.17129715 52.00394394 66.17462555 50.72273163 66.17805481 49.4026947 C66.18405192 46.6865047 66.18589413 43.97034655 66.18530273 41.25415039 C66.1852011 37.76909408 66.19885216 34.28424145 66.21607494 30.79923344 C66.22985066 27.48203767 66.22928324 24.1648803 66.23046875 20.84765625 C66.23765427 19.59243668 66.24483978 18.3372171 66.25224304 17.04396057 C66.2476281 15.30722328 66.2476281 15.30722328 66.24291992 13.53540039 C66.24434494 12.51249405 66.24576996 11.48958771 66.24723816 10.4356842 C66.24091709 7.81952861 66.24091709 7.81952861 64 6 C61.50645522 5.69321 61.50645522 5.69321 58.57226562 5.74121094 C56.870401 5.73175446 56.870401 5.73175446 55.13415527 5.72210693 C53.90394653 5.7261554 52.67373779 5.73020386 51.40625 5.734375 C50.14864868 5.73246155 48.89104736 5.7305481 47.59533691 5.72857666 C44.93207125 5.72721351 42.2691707 5.72991994 39.60595703 5.73925781 C36.18928606 5.75065248 32.77292928 5.74409252 29.35626984 5.73211288 C26.10208521 5.72315546 22.84793873 5.72942372 19.59375 5.734375 C17.74843689 5.72830231 17.74843689 5.72830231 15.86584473 5.72210693 C14.73126831 5.72841125 13.59669189 5.73471558 12.42773438 5.74121094 C11.42560913 5.74280212 10.42348389 5.74439331 9.39099121 5.74603271 C6.8145986 5.76642561 6.8145986 5.76642561 5 8 Z " fill="#1A1F34" transform="translate(0,0)"/>
<path d="M0 0 C0.99 0 1.98 0 3 0 C3 0.66 3 1.32 3 2 C3.66 2 4.32 2 5 2 C5 2.66 5 3.32 5 4 C5.99 4 6.98 4 8 4 C8.33 3.01 8.66 2.02 9 1 C13.95 1 18.9 1 24 1 C24 5.29 24 9.58 24 14 C9.48 14 -5.04 14 -20 14 C-20 9.71 -20 5.42 -20 1 C-19.01 1 -18.02 1 -17 1 C-16.67 2.32 -16.34 3.64 -16 5 C-15.01 5 -14.02 5 -13 5 C-12.67 3.68 -12.34 2.36 -12 1 C-11.34 1 -10.68 1 -10 1 C-9.2884375 1.7425 -9.2884375 1.7425 -8.5625 2.5 C-7.00030058 4.34626591 -7.00030058 4.34626591 -4 4 C-2.68 4 -1.36 4 0 4 C0 2.68 0 1.36 0 0 Z " fill="#5D5F6C" transform="translate(34,52)"/>
<path d="M0 0 C0.81700882 0.00141495 1.63401764 0.0028299 2.4757843 0.00428772 C5.08415393 0.00988331 7.69243759 0.02243496 10.30078125 0.03515625 C12.06966022 0.04017182 13.83854053 0.04473463 15.60742188 0.04882812 C19.94274144 0.05985129 24.27799677 0.07711287 28.61328125 0.09765625 C28.61328125 3.39765625 28.61328125 6.69765625 28.61328125 10.09765625 C24.82253588 10.98328714 21.32632227 11.21446926 17.4375 11.1953125 C16.28056641 11.19208984 15.12363281 11.18886719 13.93164062 11.18554688 C12.73345703 11.17716797 11.53527344 11.16878906 10.30078125 11.16015625 C9.08326172 11.15564453 7.86574219 11.15113281 6.61132812 11.14648438 C3.61192899 11.13472203 0.61263036 11.11828451 -2.38671875 11.09765625 C-2.38671875 14.06765625 -2.38671875 17.03765625 -2.38671875 20.09765625 C-2.71671875 20.09765625 -3.04671875 20.09765625 -3.38671875 20.09765625 C-3.38671875 16.13765625 -3.38671875 12.17765625 -3.38671875 8.09765625 C-4.64620924 9.13172298 -4.64620924 9.13172298 -4.484375 11.3828125 C-4.47277344 12.29933594 -4.46117187 13.21585938 -4.44921875 14.16015625 C-4.43568359 15.53880859 -4.43568359 15.53880859 -4.421875 16.9453125 C-4.41027344 17.65558594 -4.39867187 18.36585937 -4.38671875 19.09765625 C-6.69671875 19.42765625 -9.00671875 19.75765625 -11.38671875 20.09765625 C-11.38671875 13.82765625 -11.38671875 7.55765625 -11.38671875 1.09765625 C-7.56516495 -0.17619502 -3.97987405 -0.02587563 0 0 Z " fill="#929498" transform="translate(16.38671875,6.90234375)"/>
<path d="M0 0 C0.33 0 0.66 0 1 0 C1.60528268 15.66973829 2.18895205 31.31697995 2 47 C3.32 46.34 4.64 45.68 6 45 C6 50.94 6 56.88 6 63 C-11.16 63 -28.32 63 -46 63 C-46.66 61.68 -47.32 60.36 -48 59 C-51.3 59 -54.6 59 -58 59 C-58 58.67 -58 58.34 -58 58 C-29.785 57.505 -29.785 57.505 -1 57 C-0.67 38.19 -0.34 19.38 0 0 Z " fill="#272C41" transform="translate(66,9)"/>
<path d="M0 0 C18.81 0 37.62 0 57 0 C57 0.33 57 0.66 57 1 C51.06 1 45.12 1 39 1 C39.144375 2.44375 39.28875 3.8875 39.4375 5.375 C39.51871094 6.18710938 39.59992187 6.99921875 39.68359375 7.8359375 C39.89090114 10.04272805 39.89090114 10.04272805 41 12 C39.02 12.33 37.04 12.66 35 13 C36.32 14.32 37.64 15.64 39 17 C39.556875 16.319375 40.11375 15.63875 40.6875 14.9375 C41.450625 14.298125 42.21375 13.65875 43 13 C45.75 13.25 45.75 13.25 48 14 C47 17 47 17 45 18 C45.825 18.763125 46.65 19.52625 47.5 20.3125 C50 23 50 23 50 26 C48.68 25.67 47.36 25.34 46 25 C46 24.34 46 23.68 46 23 C45.21625 23.495 44.4325 23.99 43.625 24.5 C41 26 41 26 39 26 C38.38125 27.2065625 38.38125 27.2065625 37.75 28.4375 C36 31 36 31 33 32 C30 32 30 32 28.125 30.6875 C27 29 27 29 27 27 C29.31 27 31.62 27 34 27 C34 26.34 34 25.68 34 25 C32.68 24.67 31.36 24.34 30 24 C30 24.66 30 25.32 30 26 C29.01 26 28.02 26 27 26 C26.65297066 22.2726478 26.48135376 18.71607356 27 15 C29.6875 12.3125 29.6875 12.3125 33 11 C34.65 11 36.3 11 38 11 C38 7.7 38 4.4 38 1 C32.76709303 1.11808403 27.53438249 1.24232036 22.30175781 1.37231445 C20.52087397 1.4156833 18.73994802 1.45735694 16.95898438 1.49731445 C14.40221452 1.5549699 11.84565702 1.6186777 9.2890625 1.68359375 C8.49005524 1.70030624 7.69104797 1.71701874 6.86782837 1.73423767 C2.80193632 1.75392991 2.80193632 1.75392991 -1 3 C-0.67 2.01 -0.34 1.02 0 0 Z " fill="#BFB3B6" transform="translate(7,6)"/>
<path d="M0 0 C0.66 0.33 1.32 0.66 2 1 C2.02312851 8.54498233 2.04091769 16.08996101 2.05181217 23.63497066 C2.05703989 27.13808885 2.0641355 30.64118285 2.07543945 34.14428711 C2.08834206 38.16780841 2.09322912 42.19130414 2.09765625 46.21484375 C2.10281754 47.47836166 2.10797882 48.74187958 2.11329651 50.04368591 C2.11337204 51.204814 2.11344757 52.36594208 2.11352539 53.56225586 C2.115746 54.59039902 2.11796661 55.61854218 2.12025452 56.67784119 C2 59 2 59 1 60 C-0.7996366 60.10422936 -2.603366 60.13854102 -4.40600586 60.14526367 C-5.56067856 60.15164352 -6.71535126 60.15802338 -7.90501404 60.16459656 C-9.16225784 60.16570938 -10.41950165 60.1668222 -11.71484375 60.16796875 C-12.99605606 60.17129715 -14.27726837 60.17462555 -15.5973053 60.17805481 C-18.3134953 60.18405192 -21.02965345 60.18589413 -23.74584961 60.18530273 C-27.23090592 60.1852011 -30.71575855 60.19885216 -34.20076656 60.21607494 C-37.51796233 60.22985066 -40.8351197 60.22928324 -44.15234375 60.23046875 C-45.40756332 60.23765427 -46.6627829 60.24483978 -47.95603943 60.25224304 C-49.11386429 60.24916641 -50.27168915 60.24608978 -51.46459961 60.24291992 C-52.99895912 60.24505745 -52.99895912 60.24505745 -54.5643158 60.24723816 C-57 60 -57 60 -59 58 C-59.22705078 55.20263672 -59.22705078 55.20263672 -59.1953125 51.6796875 C-59.18886719 50.42285156 -59.18242188 49.16601562 -59.17578125 47.87109375 C-59.15902344 46.55238281 -59.14226563 45.23367187 -59.125 43.875 C-59.11496983 42.53516279 -59.10584404 41.19531848 -59.09765625 39.85546875 C-59.07402075 36.57013427 -59.04107234 33.28515535 -59 30 C-58.34 30 -57.68 30 -57 30 C-56.71125 31.134375 -56.4225 32.26875 -56.125 33.4375 C-55.75375 34.613125 -55.3825 35.78875 -55 37 C-54.34 37.33 -53.68 37.66 -53 38 C-53 35.36 -53 32.72 -53 30 C-52.67 30 -52.34 30 -52 30 C-52 39.24 -52 48.48 -52 58 C-34.84 58 -17.68 58 0 58 C0 38.86 0 19.72 0 0 Z " fill="#B6B9B6" transform="translate(64,7)"/>
<path d="M0 0 C0.33 2.97 0.66 5.94 1 9 C1.1546875 7.329375 1.1546875 7.329375 1.3125 5.625 C1.539375 4.42875 1.76625 3.2325 2 2 C5 0 5 0 8.1875 0.375 C9.115625 0.58125 10.04375 0.7875 11 1 C13.21773256 6.21819426 13.22573422 9.57174844 12 15 C10.3125 17.5625 10.3125 17.5625 8 19 C4.8125 18.6875 4.8125 18.6875 2 18 C1.67 18.33 1.34 18.66 1 19 C-0.66617115 19.04063832 -2.33388095 19.042721 -4 19 C-4.24867947 16.39635591 -4.47457902 13.79410106 -4.6875 11.1875 C-4.79674805 10.08051758 -4.79674805 10.08051758 -4.90820312 8.95117188 C-5.32848407 3.48751959 -5.32848407 3.48751959 -3.64453125 0.98828125 C-2 0 -2 0 0 0 Z " fill="#272238" transform="translate(20,19)"/>
<path d="M0 0 C2.43816585 -0.0809723 4.87364384 -0.14046972 7.3125 -0.1875 C8.34793945 -0.22520508 8.34793945 -0.22520508 9.40429688 -0.26367188 C14.5175964 -0.33777767 14.5175964 -0.33777767 16.98046875 1.38671875 C18 3 18 3 18 5 C18.69222656 4.9278125 19.38445313 4.855625 20.09765625 4.78125 C27.34967851 4.09331113 34.47615773 3.97073327 41.75 4.16015625 C44.83419902 4.00817048 46.43445829 3.63553284 49 2 C48.67 2.66 48.34 3.32 48 4 C52.95 4.33 57.9 4.66 63 5 C63 5.33 63 5.66 63 6 C62.30064835 6.01030746 61.60129669 6.02061493 60.88075256 6.03123474 C54.30286337 6.12905032 47.7250658 6.23154157 41.14733219 6.33933926 C37.76532878 6.39459802 34.38331676 6.44802256 31.0012207 6.49731445 C27.11660573 6.55400946 23.23214122 6.61857585 19.34765625 6.68359375 C17.51800072 6.70866249 17.51800072 6.70866249 15.65138245 6.73423767 C14.53029587 6.75418289 13.40920929 6.77412811 12.25415039 6.79467773 C11.26153702 6.81022202 10.26892365 6.8257663 9.24623108 6.84178162 C7.03025703 6.75118444 7.03025703 6.75118444 6 8 C5.84417697 9.34015221 5.74955858 10.68758903 5.68359375 12.03515625 C5.64169922 12.84404297 5.59980469 13.65292969 5.55664062 14.48632812 C5.51732422 15.33646484 5.47800781 16.18660156 5.4375 17.0625 C5.39431641 17.91650391 5.35113281 18.77050781 5.30664062 19.65039062 C5.20023298 21.76672037 5.09958269 23.88333813 5 26 C1.95802505 23.76283102 0.24575844 22.41841885 -0.41259766 18.61865234 C-0.49174817 15.79425546 -0.43572283 13.01025066 -0.3125 10.1875 C-0.28994141 9.20845703 -0.26738281 8.22941406 -0.24414062 7.22070312 C-0.18539727 4.81222545 -0.10332129 2.40690922 0 0 Z " fill="#222B44" transform="translate(0,0)"/>
<path d="M0 0 C0.79792969 0.00386719 1.59585938 0.00773437 2.41796875 0.01171875 C3.21589844 0.00785156 4.01382813 0.00398438 4.8359375 0 C10.79136108 0.01011108 10.79136108 0.01011108 11.91796875 1.13671875 C12.06151992 5.13892528 11.96013278 9.13113558 11.91796875 13.13671875 C5.97796875 13.13671875 0.03796875 13.13671875 -6.08203125 13.13671875 C-7.33272926 10.63532273 -7.21505592 8.86279184 -7.20703125 6.07421875 C-7.20960937 5.17574219 -7.2121875 4.27726562 -7.21484375 3.3515625 C-6.94099027 -1.21534704 -3.87588606 0.00658045 0 0 Z " fill="#3A5D81" transform="translate(46.08203125,38.86328125)"/>
<path d="M0 0 C0.33 0 0.66 0 1 0 C1 10.56 1 21.12 1 32 C-4.94 31.67 -10.88 31.34 -17 31 C-15.68 29.68 -14.36 28.36 -13 27 C-12.20318682 24.35815459 -12.20318682 24.35815459 -12 22 C-11.67 22.66 -11.34 23.32 -11 24 C-10.401875 23.505 -9.80375 23.01 -9.1875 22.5 C-7 21 -7 21 -4 21 C-3.67 21.66 -3.34 22.32 -3 23 C-2.01 23.33 -1.02 23.66 0 24 C-1.26941497 20.08597051 -2.51167694 18.20927127 -6 16 C-5.01 15.34 -4.02 14.68 -3 14 C-3 13.34 -3 12.68 -3 12 C-6.82097239 12.53069061 -9.06171403 13.49701566 -12 16 C-13.32 14.35 -14.64 12.7 -16 11 C-15 10 -15 10 -11.9375 9.9375 C-10.4834375 9.9684375 -10.4834375 9.9684375 -9 10 C-9 9.34 -9 8.68 -9 8 C-6.69 8 -4.38 8 -2 8 C-1.855625 6.865625 -1.71125 5.73125 -1.5625 4.5625 C-1 1 -1 1 0 0 Z " fill="#262035" transform="translate(57,8)"/>
<path d="M0 0 C10.23 0 20.46 0 31 0 C31 3.3 31 6.6 31 10 C25.97703996 11.13016601 22.02125926 10.77916092 17 10 C17 9.01 17 8.02 17 7 C14.69 7 12.38 7 10 7 C10.33 7.99 10.66 8.98 11 10 C7.37 10 3.74 10 0 10 C0 8.02 0 6.04 0 4 C2.64 4 5.28 4 8 4 C8 4.33 8 4.66 8 5 C15.26 5.66 22.52 6.32 30 7 C30 6.01 30 5.02 30 4 C22.08 4.495 22.08 4.495 14 5 C14.99 4.67 15.98 4.34 17 4 C17 3.01 17 2.02 17 1 C16.05125 1.165 15.1025 1.33 14.125 1.5 C9.4236123 2.18541792 4.73996714 2.08583441 0 2 C0 1.34 0 0.68 0 0 Z " fill="#403A5B" transform="translate(14,7)"/>
<path d="M0 0 C0.33 0 0.66 0 1 0 C1 4.95 1 9.9 1 15 C6.94 14.67 12.88 14.34 19 14 C19.33 10.37 19.66 6.74 20 3 C21.65 3 23.3 3 25 3 C25.06058594 3.68707031 25.12117188 4.37414063 25.18359375 5.08203125 C25.30927734 6.43361328 25.30927734 6.43361328 25.4375 7.8125 C25.51871094 8.70582031 25.59992187 9.59914063 25.68359375 10.51953125 C25.93489767 13.12743559 25.93489767 13.12743559 27 16 C27.66 16.33 28.32 16.66 29 17 C28.34 17 27.68 17 27 17 C26.67 17.66 26.34 18.32 26 19 C26 18.34 26 17.68 26 17 C25.34 17 24.68 17 24 17 C24 16.34 24 15.68 24 15 C21.94729537 16.84188612 21.94729537 16.84188612 21 19 C18.2303041 19.72886734 15.87137415 20 13 20 C12.34 20.99 11.68 21.98 11 23 C10.566875 22.505 10.13375 22.01 9.6875 21.5 C8.00259517 19.66781808 8.00259517 19.66781808 5 20 C4.67 20.66 4.34 21.32 4 22 C3.34 22 2.68 22 2 22 C1.67 24.31 1.34 26.62 1 29 C0.67 29 0.34 29 0 29 C0 19.43 0 9.86 0 0 Z " fill="#8092A0" transform="translate(13,37)"/>
<path d="M0 0 C4.95 0 9.9 0 15 0 C15.33 0.66 15.66 1.32 16 2 C16.66 1.34 17.32 0.68 18 0 C20.79736328 -0.22705078 20.79736328 -0.22705078 24.3203125 -0.1953125 C26.20556641 -0.18564453 26.20556641 -0.18564453 28.12890625 -0.17578125 C30.10697266 -0.15064453 30.10697266 -0.15064453 32.125 -0.125 C33.46483721 -0.11496983 34.80468152 -0.10584404 36.14453125 -0.09765625 C39.42986573 -0.07402075 42.71484465 -0.04107234 46 0 C46.66 1.32 47.32 2.64 48 4 C32.82 4 17.64 4 2 4 C1.34 2.68 0.68 1.36 0 0 Z " fill="#191D33" transform="translate(19,68)"/>
<path d="M0 0 C1.98 0 3.96 0 6 0 C7.31809145 10.77014039 6.90794463 21.43787837 6.5625 32.25 C6.50915226 34.07420092 6.45641325 35.89841974 6.40429688 37.72265625 C6.27654329 42.14867508 6.14057207 46.57437051 6 51 C4.35 51 2.7 51 1 51 C2.98 50.505 2.98 50.505 5 50 C4.67 43.4 4.34 36.8 4 30 C3.01 29.67 2.02 29.34 1 29 C0.67 26.69 0.34 24.38 0 22 C-0.66 22 -1.32 22 -2 22 C-2 18.7 -2 15.4 -2 12 C1.465 11.505 1.465 11.505 5 11 C5 7.7 5 4.4 5 1 C3.35 1 1.7 1 0 1 C0 0.67 0 0.34 0 0 Z " fill="#495674" transform="translate(7,15)"/>
<path d="M0 0 C0.99 0 1.98 0 3 0 C3.33 1.32 3.66 2.64 4 4 C4.99 4 5.98 4 7 4 C7.33 2.68 7.66 1.36 8 0 C8.66 0 9.32 0 10 0 C10.474375 0.495 10.94875 0.99 11.4375 1.5 C12.99969942 3.34626591 12.99969942 3.34626591 16 3 C16.825 3.185625 17.65 3.37125 18.5 3.5625 C21.11786478 4.22461637 21.11786478 4.22461637 24 3 C24.33 4.32 24.66 5.64 25 7 C24.09507813 6.93039063 24.09507813 6.93039063 23.171875 6.859375 C17.91586667 6.52189688 17.91586667 6.52189688 13.4375 9 C12.7259375 9.99 12.7259375 9.99 12 11 C11.67 10.34 11.34 9.68 11 9 C10.34 9 9.68 9 9 9 C8.67 9.66 8.34 10.32 8 11 C8 10.34 8 9.68 8 9 C6.02 9.99 6.02 9.99 4 11 C4 10.34 4 9.68 4 9 C3.01 9 2.02 9 1 9 C1 9.99 1 10.98 1 12 C6.28 12 11.56 12 17 12 C17.33 10.68 17.66 9.36 18 8 C18.33 8.66 18.66 9.32 19 10 C19.66 9.34 20.32 8.68 21 8 C21 9.65 21 11.3 21 13 C14.07 13 7.14 13 0 13 C0 8.71 0 4.42 0 0 Z " fill="#3F4354" transform="translate(14,53)"/>
<path d="M0 0 C1.98 0 3.96 0 6 0 C6 9.57 6 19.14 6 29 C5.67 29 5.34 29 5 29 C4.67 27.35 4.34 25.7 4 24 C3.34 24 2.68 24 2 24 C2 24.99 2 25.98 2 27 C2.66 27.66 3.32 28.32 4 29 C2.68 29 1.36 29 0 29 C0 19.43 0 9.86 0 0 Z " fill="#929597" transform="translate(59,21)"/>
<path d="M0 0 C0 2.31 0 4.62 0 7 C-1.98 7.33 -3.96 7.66 -6 8 C-4.35 8.33 -2.7 8.66 -1 9 C-1 12.3 -1 15.6 -1 19 C-3.31 19.33 -5.62 19.66 -8 20 C-8 13.73 -8 7.46 -8 1 C-5.07175348 0.02391783 -3.04386724 -0.08226668 0 0 Z " fill="#74767D" transform="translate(13,7)"/>
<path d="M0 0 C5.28 0 10.56 0 16 0 C16 2.64 16 5.28 16 8 C10.66666667 8 5.33333333 8 0 8 C0 5.36 0 2.72 0 0 Z " fill="#525394" transform="translate(15,39)"/>
<path d="M0 0 C8.25 0 16.5 0 25 0 C23.68 0.99 22.36 1.98 21 3 C20.55564536 4.94950296 20.55564536 4.94950296 20.8125 7 C21.01427194 9.87934008 20.94835829 11.15492512 20 14 C20.99 14 21.98 14 23 14 C23 13.34 23 12.68 23 12 C25.475 12.495 25.475 12.495 28 13 C27.67 13.99 27.34 14.98 27 16 C24.36 16 21.72 16 19 16 C18.20439236 13.08500057 17.74677501 10.25438581 17.4375 7.25 C17.31181641 6.05117188 17.31181641 6.05117188 17.18359375 4.828125 C17.12300781 4.22484375 17.06242187 3.6215625 17 3 C14.14921909 2.23283149 14.14921909 2.23283149 11 2 C9.22010006 3.069788 9.22010006 3.069788 8 5 C7.42224116 7.73230305 7.42224116 7.73230305 7.3125 10.6875 C7.24675781 11.68136719 7.18101563 12.67523438 7.11328125 13.69921875 C7.07589844 14.45847656 7.03851562 15.21773437 7 16 C6.67 16 6.34 16 6 16 C6 11.05 6 6.1 6 1 C5.01 1.33 4.02 1.66 3 2 C2.01 1.34 1.02 0.68 0 0 Z " fill="#3E404E" transform="translate(14,18)"/>
<path d="M0 0 C1.1446875 0.3403125 1.1446875 0.3403125 2.3125 0.6875 C1.3125 3.6875 1.3125 3.6875 -0.6875 4.6875 C0.55 5.8321875 0.55 5.8321875 1.8125 7 C4.3125 9.6875 4.3125 9.6875 4.3125 12.6875 C2.9925 12.3575 1.6725 12.0275 0.3125 11.6875 C0.3125 11.0275 0.3125 10.3675 0.3125 9.6875 C-0.47125 10.1825 -1.255 10.6775 -2.0625 11.1875 C-4.6875 12.6875 -4.6875 12.6875 -6.6875 12.6875 C-7.84543426 8.6347301 -7.65431638 6.42445111 -5.6875 2.6875 C-3.79368888 -0.01794446 -3.35333463 -0.38992263 0 0 Z " fill="#EAEADD" transform="translate(52.6875,19.3125)"/>
<path d="M0 0 C1.98 0 3.96 0 6 0 C6.33 6.27 6.66 12.54 7 19 C4.03 19 1.06 19 -2 19 C-2 16.69 -2 14.38 -2 12 C1.465 11.505 1.465 11.505 5 11 C5 7.7 5 4.4 5 1 C3.35 1 1.7 1 0 1 C0 0.67 0 0.34 0 0 Z " fill="#364258" transform="translate(7,15)"/>
<path d="M0 0 C2.97 0 5.94 0 9 0 C8.67 0.99 8.34 1.98 8 3 C7.34 3 6.68 3 6 3 C6 2.34 6 1.68 6 1 C5.01 1 4.02 1 3 1 C3 1.99 3 2.98 3 4 C6.3 4.33 9.6 4.66 13 5 C12.67 5.99 12.34 6.98 12 8 C7.05 8 2.1 8 -3 8 C-3.33 7.01 -3.66 6.02 -4 5 C-3.67 4.34 -3.34 3.68 -3 3 C-2.34 3 -1.68 3 -1 3 C-0.67 2.01 -0.34 1.02 0 0 Z " fill="#6E7A9D" transform="translate(44,43)"/>
<path d="M0 0 C0.45375 0.495 0.9075 0.99 1.375 1.5 C2.87635519 3.22609337 2.87635519 3.22609337 5 3 C5 7.29 5 11.58 5 16 C4.01 16 3.02 16 2 16 C2 16.66 2 17.32 2 18 C1.01 17.67 0.02 17.34 -1 17 C-1.02691685 14.54159395 -1.04679802 12.08348118 -1.0625 9.625 C-1.07087891 8.92632812 -1.07925781 8.22765625 -1.08789062 7.5078125 C-1.11328125 2.2265625 -1.11328125 2.2265625 0 0 Z " fill="#85878D" transform="translate(6,48)"/>
<path d="M0 0 C1.65 0 3.3 0 5 0 C6.32229189 2.64458379 6.09677194 4.67761301 6.0625 7.625 C6.05347656 8.62789062 6.04445313 9.63078125 6.03515625 10.6640625 C6.02355469 11.43492188 6.01195313 12.20578125 6 13 C4.02 13 2.04 13 0 13 C0 8.71 0 4.42 0 0 Z " fill="#346CA0" transform="translate(59,7)"/>
<path d="M0 0 C0.33 0 0.66 0 1 0 C1 4.29 1 8.58 1 13 C0.01 13.33 -0.98 13.66 -2 14 C-2.33 13.34 -2.66 12.68 -3 12 C-6.82097239 12.53069061 -9.06171403 13.49701566 -12 16 C-13.32 14.35 -14.64 12.7 -16 11 C-15 10 -15 10 -11.9375 9.9375 C-10.4834375 9.9684375 -10.4834375 9.9684375 -9 10 C-9 9.34 -9 8.68 -9 8 C-6.69 8 -4.38 8 -2 8 C-1.855625 6.865625 -1.71125 5.73125 -1.5625 4.5625 C-1 1 -1 1 0 0 Z " fill="#303343" transform="translate(57,8)"/>
<path d="M0 0 C0.33 0.66 0.66 1.32 1 2 C1.99 2 2.98 2 4 2 C4.33 1.34 4.66 0.68 5 0 C6.98 0.66 8.96 1.32 11 2 C11 3.32 11 4.64 11 6 C5.72 6 0.44 6 -5 6 C-4.67 4.35 -4.34 2.7 -4 1 C-2.02 1.495 -2.02 1.495 0 2 C0 1.34 0 0.68 0 0 Z " fill="#AC1D70" transform="translate(20,45)"/>
<path d="M0 0 C18.15 0 36.3 0 55 0 C55 0.33 55 0.66 55 1 C46.42 1 37.84 1 29 1 C28.67 1.99 28.34 2.98 28 4 C27.01 3.67 26.02 3.34 25 3 C25.33 2.34 25.66 1.68 26 1 C21.38 1.33 16.76 1.66 12 2 C12 2.99 12 3.98 12 5 C11.34 3.68 10.68 2.36 10 1 C6.7 1 3.4 1 0 1 C0 0.67 0 0.34 0 0 Z " fill="#545C6F" transform="translate(8,67)"/>
<path d="M0 0 C1.65 0 3.3 0 5 0 C5.06058594 0.68707031 5.12117188 1.37414063 5.18359375 2.08203125 C5.26738281 2.98308594 5.35117187 3.88414063 5.4375 4.8125 C5.51871094 5.70582031 5.59992187 6.59914063 5.68359375 7.51953125 C5.93489767 10.12743559 5.93489767 10.12743559 7 13 C7.66 13.33 8.32 13.66 9 14 C8.34 14 7.68 14 7 14 C6.67 14.66 6.34 15.32 6 16 C6 15.34 6 14.68 6 14 C5.34 14 4.68 14 4 14 C4 13.34 4 12.68 4 12 C1.94729537 13.84188612 1.94729537 13.84188612 1 16 C0.34 16 -0.32 16 -1 16 C-0.67 10.72 -0.34 5.44 0 0 Z " fill="#5E79AA" transform="translate(33,40)"/>
<path d="M0 0 C1.32 0 2.64 0 4 0 C3.34 1.98 2.68 3.96 2 6 C3.98 6 5.96 6 8 6 C8.33 7.98 8.66 9.96 9 12 C6.69 11.34 4.38 10.68 2 10 C2 10.66 2 11.32 2 12 C1.01 12 0.02 12 -1 12 C-1.02687279 10.18757948 -1.04633715 8.37504767 -1.0625 6.5625 C-1.07410156 5.55316406 -1.08570313 4.54382813 -1.09765625 3.50390625 C-1 1 -1 1 0 0 Z " fill="#E7E8DB" transform="translate(35,20)"/>
<path d="M0 0 C0.33 0.66 0.66 1.32 1 2 C1.99 2.33 2.98 2.66 4 3 C3.6875 4.875 3.6875 4.875 3 7 C0 9 0 9 -2.5625 8.75 C-5 8 -5 8 -7 6 C-7 5.01 -7 4.02 -7 3 C-4.46815512 0.64276511 -3.52809907 0 0 0 Z " fill="#C798A9" transform="translate(53,29)"/>
<path d="M0 0 C4.29 0 8.58 0 13 0 C13 1.98 13 3.96 13 6 C9.7 6 6.4 6 3 6 C3.99 4.35 4.98 2.7 6 1 C4.68 1.33 3.36 1.66 2 2 C2 3.32 2 4.64 2 6 C1.34 6 0.68 6 0 6 C0 4.02 0 2.04 0 0 Z " fill="#425B7C" transform="translate(45,53)"/>
<path d="M0 0 C1.98 0 3.96 0 6 0 C6.02685412 2.31243792 6.04632841 4.6249627 6.0625 6.9375 C6.07410156 8.22527344 6.08570312 9.51304688 6.09765625 10.83984375 C6 14 6 14 5 15 C3.33382885 15.04063832 1.66611905 15.042721 0 15 C0 12.36 0 9.72 0 7 C1.65 7 3.3 7 5 7 C5 5.68 5 4.36 5 3 C3.35 3 1.7 3 0 3 C0 2.01 0 1.02 0 0 Z " fill="#3D4E66" transform="translate(59,51)"/>
<path d="M0 0 C1.65 0 3.3 0 5 0 C6.80619523 4.46236469 7.11658501 7.31034294 6 12 C3.36 11.67 0.72 11.34 -2 11 C-2.33 9.68 -2.66 8.36 -3 7 C-1.02 7 0.96 7 3 7 C2.65213292 5.02463255 2.65213292 5.02463255 2 3 C1.34 2.67 0.68 2.34 0 2 C0 1.34 0 0.68 0 0 Z " fill="#F3F3E4" transform="translate(26,20)"/>
<path d="M0 0 C0.33 0 0.66 0 1 0 C1 3.96 1 7.92 1 12 C1.99 11.67 2.98 11.34 4 11 C4.33 7.37 4.66 3.74 5 0 C5.33 0 5.66 0 6 0 C6 6.93 6 13.86 6 21 C5.67 21 5.34 21 5 21 C4.67 19.35 4.34 17.7 4 16 C3.34 16 2.68 16 2 16 C2 16.99 2 17.98 2 19 C2.66 19.66 3.32 20.32 4 21 C2.68 21 1.36 21 0 21 C0 14.07 0 7.14 0 0 Z " fill="#413951" transform="translate(59,29)"/>
<path d="M0 0 C0.99 0 1.98 0 3 0 C2.83628906 0.67417969 2.67257813 1.34835938 2.50390625 2.04296875 C1.9124642 5.51367906 1.90460954 8.79322124 1.9375 12.3125 C1.94652344 13.56675781 1.95554687 14.82101563 1.96484375 16.11328125 C1.97644531 17.06589844 1.98804688 18.01851562 2 19 C3.65 19 5.3 19 7 19 C7.33 18.01 7.66 17.02 8 16 C8 16.66 8 17.32 8 18 C10.97 18.33 13.94 18.66 17 19 C17 19.33 17 19.66 17 20 C11.39 20 5.78 20 0 20 C0 13.4 0 6.8 0 0 Z " fill="#181B2D" transform="translate(14,19)"/>
<path d="M0 0 C0.598125 0.20625 1.19625 0.4125 1.8125 0.625 C0.8225 0.625 -0.1675 0.625 -1.1875 0.625 C-1.1875 1.285 -1.1875 1.945 -1.1875 2.625 C0.1325 3.285 1.4525 3.945 2.8125 4.625 C2.4825 5.945 2.1525 7.265 1.8125 8.625 C-0.85416667 8.625 -3.52083333 8.625 -6.1875 8.625 C-5.875 5.25 -5.875 5.25 -5.1875 1.625 C-2.1875 -0.375 -2.1875 -0.375 0 0 Z " fill="#DFE1D4" transform="translate(27.1875,19.375)"/>
<path d="M0 0 C0.66 0 1.32 0 2 0 C2 5.28 2 10.56 2 16 C1.01 16 0.02 16 -1 16 C-1 12.37 -1 8.74 -1 5 C-1.66 5 -2.32 5 -3 5 C-1.125 1.125 -1.125 1.125 0 0 Z " fill="#E7DFD7" transform="translate(18,19)"/>
<path d="M0 0 C3.34252724 -0.07427838 5.8035914 -0.06546953 9 1 C9 2.32 9 3.64 9 5 C7.68 5 6.36 5 5 5 C5 5.99 5 6.98 5 8 C3.35 8 1.7 8 0 8 C0 5.36 0 2.72 0 0 Z " fill="#3F71B1" transform="translate(15,39)"/>
<path d="M0 0 C5.61 0 11.22 0 17 0 C17 0.66 17 1.32 17 2 C14.14804778 3.42597611 11.67538825 3.1320252 8.5 3.125 C6.75203125 3.12886719 6.75203125 3.12886719 4.96875 3.1328125 C2 3 2 3 0 2 C0 1.34 0 0.68 0 0 Z " fill="#4478A0" transform="translate(40,39)"/>
<path d="M0 0 C1.32 0 2.64 0 4 0 C5.75 2.5 5.75 2.5 7 5 C6.39671875 5.03738281 5.7934375 5.07476563 5.171875 5.11328125 C-0.99367772 5.56253341 -0.99367772 5.56253341 -6 9 C-6.33 8.01 -6.66 7.02 -7 6 C-2.25 2 -2.25 2 0 2 C0 1.34 0 0.68 0 0 Z " fill="#171B2E" transform="translate(10,0)"/>
<path d="M0 0 C2.31 0 4.62 0 7 0 C7 0.99 7 1.98 7 3 C9.64 3 12.28 3 15 3 C15 3.33 15 3.66 15 4 C6.75 4 -1.5 4 -10 4 C-10 3.67 -10 3.34 -10 3 C-6.7 2.67 -3.4 2.34 0 2 C0 1.34 0 0.68 0 0 Z " fill="#7A7B82" transform="translate(24,14)"/>
<path d="M0 0 C1.65 0 3.3 0 5 0 C5 3.3 5 6.6 5 10 C3.68 9.67 2.36 9.34 1 9 C0.67 6.03 0.34 3.06 0 0 Z " fill="#A9A9A6" transform="translate(7,16)"/>
<path d="M0 0 C0.66 0.33 1.32 0.66 2 1 C2 1.99 2 2.98 2 4 C-3.28 4 -8.56 4 -14 4 C-14 3.01 -14 2.02 -14 1 C-13.01 1 -12.02 1 -11 1 C-10.67 1.33 -10.34 1.66 -10 2 C-9.38125 1.835 -8.7625 1.67 -8.125 1.5 C-6 1 -6 1 -3 2 C-2.01 1.34 -1.02 0.68 0 0 Z " fill="#9C9FA5" transform="translate(29,61)"/>
<path d="M0 0 C0.99 0 1.98 0 3 0 C3.33 1.32 3.66 2.64 4 4 C4.99 4 5.98 4 7 4 C7.33 2.68 7.66 1.36 8 0 C8.66 0 9.32 0 10 0 C10 2.31 10 4.62 10 7 C6.7 7 3.4 7 0 7 C0 4.69 0 2.38 0 0 Z " fill="#3A5781" transform="translate(14,53)"/>
<path d="M0 0 C0.99 0.495 0.99 0.495 2 1 C2.85056945 4.55692677 3.16909807 6.49270578 2 10 C2.99 10 3.98 10 5 10 C5 9.34 5 8.68 5 8 C6.65 8.33 8.3 8.66 10 9 C9.67 9.99 9.34 10.98 9 12 C6.36 12 3.72 12 1 12 C-0.3271261 8.0186217 -0.06915913 4.14954773 0 0 Z " fill="#89858C" transform="translate(32,22)"/>
<path d="M0 0 C1.1446875 0.3403125 1.1446875 0.3403125 2.3125 0.6875 C1.9825 1.6775 1.6525 2.6675 1.3125 3.6875 C-0.6875 4.35416667 -2.6875 5.02083333 -4.6875 5.6875 C-5.0175 6.6775 -5.3475 7.6675 -5.6875 8.6875 C-6.3475 8.3575 -7.0075 8.0275 -7.6875 7.6875 C-4.79076087 -0.55706522 -4.79076087 -0.55706522 0 0 Z " fill="#EFF0E0" transform="translate(52.6875,19.3125)"/>
<path d="M0 0 C4.29 0 8.58 0 13 0 C13 0.99 13 1.98 13 3 C8.71 3 4.42 3 0 3 C0 2.01 0 1.02 0 0 Z " fill="#445E73" transform="translate(32,7)"/>
<path d="M0 0 C2.31 0.33 4.62 0.66 7 1 C5.84826645 3.46800047 4.95216435 5.04783565 3 7 C0.375 6.625 0.375 6.625 -2 6 C-2 5.34 -2 4.68 -2 4 C-1.01 3.34 -0.02 2.68 1 2 C0.67 1.34 0.34 0.68 0 0 Z " fill="#C86194" transform="translate(25,31)"/>
<path d="M0 0 C1.98 0 3.96 0 6 0 C6 1.98 6 3.96 6 6 C4.02 6 2.04 6 0 6 C0 4.02 0 2.04 0 0 Z " fill="#562B51" transform="translate(59,21)"/>
<path d="M0 0 C3.96 0 7.92 0 12 0 C12 0.99 12 1.98 12 3 C8.04 3 4.08 3 0 3 C0 2.01 0 1.02 0 0 Z " fill="#BF2383" transform="translate(32,11)"/>
<path d="M0 0 C4.95 0 9.9 0 15 0 C14.67 0.99 14.34 1.98 14 3 C13.01 3.33 12.02 3.66 11 4 C11 3.34 11 2.68 11 2 C10.34 2 9.68 2 9 2 C8.67 2.66 8.34 3.32 8 4 C8 3.34 8 2.68 8 2 C6.02 2.99 6.02 2.99 4 4 C4 3.01 4 2.02 4 1 C2.68 0.67 1.36 0.34 0 0 Z " fill="#575966" transform="translate(14,60)"/>
<path d="M0 0 C1.67542976 0.28604898 3.34385343 0.61781233 5 1 C5.33 2.32 5.66 3.64 6 5 C3.36 5 0.72 5 -2 5 C-1.125 1.125 -1.125 1.125 0 0 Z " fill="#B9C3C6" transform="translate(50,8)"/>
<path d="M0 0 C4.95 0 9.9 0 15 0 C13.35 1.65 11.7 3.3 10 5 C9.278125 4.505 8.55625 4.01 7.8125 3.5 C4.85151341 1.92080715 3.28746971 1.71821688 0 2 C0 1.34 0 0.68 0 0 Z " fill="#313344" transform="translate(24,18)"/>
<path d="M0 0 C2.64 0 5.28 0 8 0 C7.6875 1.9375 7.6875 1.9375 7 4 C4 5 4 5 1 5 C0.67 3.35 0.34 1.7 0 0 Z " fill="#797E86" transform="translate(25,52)"/>
<path d="M0 0 C0 2.31 0 4.62 0 7 C-2.91517292 5.92598892 -4.77810176 5.22189824 -7 3 C-2.25 0 -2.25 0 0 0 Z " fill="#1D2033" transform="translate(58,21)"/>
<path d="M0 0 C0 0.99 0 1.98 0 3 C-3.3 3 -6.6 3 -10 3 C-10 2.34 -10 1.68 -10 1 C-6.78548731 -0.60725635 -3.56387464 -0.05748185 0 0 Z " fill="#8E8D8F" transform="translate(57,62)"/>
<path d="M0 0 C0.33 0 0.66 0 1 0 C1.06058594 0.62648438 1.12117188 1.25296875 1.18359375 1.8984375 C1.26738281 2.71570313 1.35117187 3.53296875 1.4375 4.375 C1.55931641 5.59316406 1.55931641 5.59316406 1.68359375 6.8359375 C1.89090114 9.04272805 1.89090114 9.04272805 3 11 C2.030625 11.12375 1.06125 11.2475 0.0625 11.375 C-0.948125 11.58125 -1.95875 11.7875 -3 12 C-3.33 12.66 -3.66 13.32 -4 14 C-5.32 13.34 -6.64 12.68 -8 12 C-5 10 -5 10 0 10 C0 6.7 0 3.4 0 0 Z " fill="#8D9094" transform="translate(45,7)"/>
<path d="M0 0 C2.97 0 5.94 0 9 0 C9 0.99 9 1.98 9 3 C6.03 3 3.06 3 0 3 C0 2.01 0 1.02 0 0 Z " fill="#B00D6A" transform="translate(5,31)"/>
<path d="M0 0 C1.98 0 3.96 0 6 0 C6.33 1.65 6.66 3.3 7 5 C4.03 4.67 1.06 4.34 -2 4 C-1.34 3.67 -0.68 3.34 0 3 C0 2.01 0 1.02 0 0 Z " fill="#696C76" transform="translate(25,8)"/>
<path d="M0 0 C0.99 0.66 1.98 1.32 3 2 C2.01 2 1.02 2 0 2 C-0.33 3.65 -0.66 5.3 -1 7 C-1.99 7.33 -2.98 7.66 -4 8 C-4.33 6.68 -4.66 5.36 -5 4 C-3.35 2.68 -1.7 1.36 0 0 Z " fill="#D6D7CC" transform="translate(50,24)"/>
<path d="M0 0 C1.65 0 3.3 0 5 0 C5 1.65 5 3.3 5 5 C3.35 5 1.7 5 0 5 C0 3.35 0 1.7 0 0 Z " fill="#98989A" transform="translate(7,8)"/>
<path d="M0 0 C3.10551666 0 4.35261084 0.5393715 7 2 C6.01 3.485 6.01 3.485 5 5 C2.375 5.1875 2.375 5.1875 0 5 C0 3.35 0 1.7 0 0 Z " fill="#494D5D" transform="translate(25,55)"/>
<path d="M0 0 C-0.33 0.99 -0.66 1.98 -1 3 C-3.97 3 -6.94 3 -10 3 C-10 2.34 -10 1.68 -10 1 C-6.52674819 -0.1577506 -3.63932552 -0.06866652 0 0 Z " fill="#6595C0" transform="translate(57,48)"/>
<path d="M0 0 C2.64 0 5.28 0 8 0 C8 0.99 8 1.98 8 3 C5.36 3 2.72 3 0 3 C0 2.01 0 1.02 0 0 Z " fill="#3673AA" transform="translate(5,28)"/>
<path d="M0 0 C0.99 0 1.98 0 3 0 C3 0.66 3 1.32 3 2 C3.66 2 4.32 2 5 2 C5.33 2.99 5.66 3.98 6 5 C3.125 5.625 3.125 5.625 0 6 C-0.66 5.34 -1.32 4.68 -2 4 C-1.34 4 -0.68 4 0 4 C0 2.68 0 1.36 0 0 Z " fill="#868A90" transform="translate(34,52)"/>
<path d="M0 0 C0.99 0 1.98 0 3 0 C3 0.66 3 1.32 3 2 C3.66 2 4.32 2 5 2 C5 1.34 5 0.68 5 0 C5.66 0 6.32 0 7 0 C7 0.66 7 1.32 7 2 C7.66 2 8.32 2 9 2 C9 2.66 9 3.32 9 4 C6.03 3.67 3.06 3.34 0 3 C0 2.01 0 1.02 0 0 Z " fill="#5C537A" transform="translate(47,44)"/>
<path d="M0 0 C0.33 0 0.66 0 1 0 C1 3.63 1 7.26 1 11 C1.99 11 2.98 11 4 11 C4 11.99 4 12.98 4 14 C2.68 14 1.36 14 0 14 C0 9.38 0 4.76 0 0 Z " fill="#873364" transform="translate(16,24)"/>
<path d="M0 0 C2.475 0.495 2.475 0.495 5 1 C4.67 2.32 4.34 3.64 4 5 C2.68 4.67 1.36 4.34 0 4 C0 2.68 0 1.36 0 0 Z " fill="#2E3142" transform="translate(25,23)"/>
<path d="M0 0 C0.99 0.495 0.99 0.495 2 1 C2 1.99 2 2.98 2 4 C2.66 4 3.32 4 4 4 C4 4.66 4 5.32 4 6 C3.34 6 2.68 6 2 6 C1.34 7.32 0.68 8.64 0 10 C0 6.7 0 3.4 0 0 Z " fill="#3F628C" transform="translate(39,40)"/>
<path d="M0 0 C1.98 0 3.96 0 6 0 C6 1.32 6 2.64 6 4 C4.35 4 2.7 4 1 4 C0.67 2.68 0.34 1.36 0 0 Z " fill="#9255AF" transform="translate(25,43)"/>
<path d="M0 0 C0.33 1.98 0.66 3.96 1 6 C-1 5 -3 4 -5 3 C-5 2.34 -5 1.68 -5 1 C-2 0 -2 0 0 0 Z " fill="#F3F3E4" transform="translate(43,26)"/>
<path d="M0 0 C0.33 1.32 0.66 2.64 1 4 C-1.64 4.33 -4.28 4.66 -7 5 C-7 4.01 -7 3.02 -7 2 C-4.69 1.34 -2.38 0.68 0 0 Z " fill="#1B1E33" transform="translate(56,15)"/>
<path d="M0 0 C0 0.99 0 1.98 0 3 C-2.64 3 -5.28 3 -8 3 C-8.33 2.34 -8.66 1.68 -9 1 C-5.94152152 0.45627049 -3.11227195 0 0 0 Z " fill="#8E8B8B" transform="translate(46,62)"/>
<path d="M0 0 C1.65 0 3.3 0 5 0 C5 1.32 5 2.64 5 4 C3.35 4 1.7 4 0 4 C0 2.68 0 1.36 0 0 Z " fill="#6E727B" transform="translate(59,54)"/>
<path d="M0 0 C0.66 0 1.32 0 2 0 C2 3.96 2 7.92 2 12 C1.67 11.34 1.34 10.68 1 10 C-1.02463255 9.34786708 -1.02463255 9.34786708 -3 9 C-2.01 8.34 -1.02 7.68 0 7 C0.25015873 3.41642759 0.25015873 3.41642759 0 0 Z " fill="#322E40" transform="translate(56,28)"/>
<path d="M0 0 C2.97 0 5.94 0 9 0 C7.515 1.485 7.515 1.485 6 3 C3.375 2.8125 3.375 2.8125 1 2 C0.67 1.34 0.34 0.68 0 0 Z " fill="#E12880" transform="translate(47,35)"/>
<path d="M0 0 C2.97 0 5.94 0 9 0 C7.515 1.485 7.515 1.485 6 3 C3.375 2.8125 3.375 2.8125 1 2 C0.67 1.34 0.34 0.68 0 0 Z " fill="#E5207D" transform="translate(35,35)"/>
<path d="M0 0 C0.99 0 1.98 0 3 0 C3.33 1.32 3.66 2.64 4 4 C2.68 4.33 1.36 4.66 0 5 C-0.5625 3.0625 -0.5625 3.0625 -1 1 C-0.67 0.67 -0.34 0.34 0 0 Z " fill="#272B3C" transform="translate(50,29)"/>
<path d="M0 0 C2.31 0 4.62 0 7 0 C7 0.99 7 1.98 7 3 C5.02 3 3.04 3 1 3 C0.67 2.01 0.34 1.02 0 0 Z " fill="#4C6187" transform="translate(24,14)"/>
<path d="M0 0 C1.98 0 3.96 0 6 0 C5.67 1.65 5.34 3.3 5 5 C2.5 3.625 2.5 3.625 0 2 C0 1.34 0 0.68 0 0 Z " fill="#6A6C73" transform="translate(59,27)"/>
<path d="M0 0 C0.99 0 1.98 0 3 0 C3.33 0.33 3.66 0.66 4 1 C4.99 0.67 5.98 0.34 7 0 C7 0.99 7 1.98 7 3 C4.69 3 2.38 3 0 3 C0 2.01 0 1.02 0 0 Z " fill="#A5A6A7" transform="translate(15,62)"/>
<path d="M0 0 C1.32 0 2.64 0 4 0 C4 1.32 4 2.64 4 4 C3.01 4 2.02 4 1 4 C0.67 4.66 0.34 5.32 0 6 C0 4.02 0 2.04 0 0 Z " fill="#3F87B6" transform="translate(17,53)"/>
<path d="M0 0 C0.33 0.66 0.66 1.32 1 2 C1.99 2 2.98 2 4 2 C4 3.32 4 4.64 4 6 C2.68 6 1.36 6 0 6 C0 4.02 0 2.04 0 0 Z " fill="#BA227E" transform="translate(20,45)"/>
<path d="M0 0 C1.32 0 2.64 0 4 0 C4 1.65 4 3.3 4 5 C2.68 5 1.36 5 0 5 C0 3.35 0 1.7 0 0 Z " fill="#845CB1" transform="translate(15,42)"/>
<path d="M0 0 C0.99 0 1.98 0 3 0 C3 1.98 3 3.96 3 6 C2.01 6.495 2.01 6.495 1 7 C0.67 4.69 0.34 2.38 0 0 Z " fill="#4876A4" transform="translate(7,37)"/>
<path d="M0 0 C1.98 0 3.96 0 6 0 C6 0.99 6 1.98 6 3 C4.02 3 2.04 3 0 3 C0 2.01 0 1.02 0 0 Z " fill="#277AB2" transform="translate(25,39)"/>
<path d="M0 0 C0.66 0 1.32 0 2 0 C2 1.98 2 3.96 2 6 C1.01 6.495 1.01 6.495 0 7 C-0.66 6.67 -1.32 6.34 -2 6 C-2 4.35 -2 2.7 -2 1 C-1.67 1.66 -1.34 2.32 -1 3 C-0.34 3 0.32 3 1 3 C0.67 2.01 0.34 1.02 0 0 Z " fill="#808387" transform="translate(62,35)"/>
<path d="M0 0 C2.475 0.495 2.475 0.495 5 1 C4.67 1.99 4.34 2.98 4 4 C2.68 4 1.36 4 0 4 C0 2.68 0 1.36 0 0 Z " fill="#292B3E" transform="translate(37,30)"/>
<path d="M0 0 C2.97 0 5.94 0 9 0 C8.67 0.99 8.34 1.98 8 3 C7.01 3.33 6.02 3.66 5 4 C5 3.01 5 2.02 5 1 C3.35 1 1.7 1 0 1 C0 0.67 0 0.34 0 0 Z " fill="#656974" transform="translate(20,60)"/>
</svg>